# xmcd CD database file
#
# Track frame offsets:
#	150
#	18450
#	37875
#	50138
#	67425
#	81413
#	98625
#	120488
#	138675
#	156563
#	169125
#	181650
#	198975
#
# Disc length: 3032 seconds
#
# Revision: 1
# Processed by: cddbd v1.5.1PL0 Copyright (c) Steve Scherf et al.
# Submitted via: cdripper 1.0.7
#
DISCID=ba0bd60d
DTITLE=Reverend Gary Davis - From Blues to Gospel
DYEAR=1996
DGENRE=Blues
TTITLE0=Talk on The Corner
TTITLE1=Sally, Where'd You Get Your Whiskey From?
TTITLE2=Crow Jane
TTITLE3=Eagle Rocking Blues
TTITLE4=Cocaine Blues
TTITLE5=Lost John
TTITLE6=Samson and Delilah
TTITLE7=I Heard The Angels Singing
TTITLE8=Children on Zion
TTITLE9=Lord I Wish I Could See
TTITLE10=Down By the River
TTITLE11=You Better Get Right
TTITLE12=I'll Do My Last Singing
EXTD=YEAR: 1996
EXTT0=
EXTT1=
EXTT2=
EXTT3=
EXTT4=
EXTT5=
EXTT6=
EXTT7=
EXTT8=
EXTT9=
EXTT10=
EXTT11=
EXTT12=
PLAYORDER=
